<?xml version="1.0" encoding="utf-8"?>
<!-- Generator: Adobe Illustrator 17.0.0, SVG Export Plug-In . SVG Version: 6.00 Build 0)  -->
<!DOCTYPE svg PUBLIC "-//W3C//DTD SVG 1.1//EN" "http://www.w3.org/Graphics/SVG/1.1/DTD/svg11.dtd">
<svg version="1.1" xmlns="http://www.w3.org/2000/svg" xmlns:xlink="http://www.w3.org/1999/xlink" x="0px" y="0px" width="531px"
	 height="468px" viewBox="0 0 531 468" enable-background="new 0 0 531 468" xml:space="preserve">
<g id="BACKGROUND">
	<rect x="18" y="265.299" fill="#FFFFFF" width="500" height="202.701"/>
	
		<ellipse transform="matrix(0.9986 0.0533 -0.0533 0.9986 22.4219 -8.7834)" fill="#DEDEDE" cx="175.959" cy="416.17" rx="90.237" ry="6.364"/>
	<g>
		<path fill="#99BFC9" d="M253.621,421.952l-146.546-13.845l-30.984-10.052l0,0l32.319-4.071l146.546,13.845
			c5.308,0.502,8.505,4.01,8.138,7.894l0,0C262.726,419.606,258.929,422.453,253.621,421.952z"/>
		<path fill="#779AA3" d="M253.997,417.974l-146.546-13.845l-31.36-6.075l0,0l31.943-0.094l146.546,13.845
			c5.308,0.501,8.674,2.22,8.514,3.916l0,0C262.933,417.418,259.305,418.476,253.997,417.974z"/>
		<polygon fill="#DEDEDE" points="107.075,408.106 76.091,398.054 76.091,398.054 108.409,393.983 		"/>
		<polygon fill="#003757" points="90.97,396.18 76.091,398.054 90.355,402.682 		"/>
		
			<rect x="235.049" y="406.89" transform="matrix(0.9956 0.0941 -0.0941 0.9956 40.0253 -21.1808)" fill="#005C91" width="19.282" height="14.186"/>
		
			<rect x="241.658" y="406.89" transform="matrix(0.9956 0.0941 -0.0941 0.9956 40.0253 -21.1808)" fill="#003757" width="6.065" height="14.186"/>
	</g>
	<g>
		
			<linearGradient id="SVGID_1_" gradientUnits="userSpaceOnUse" x1="123.5729" y1="500.9388" x2="516.9213" y2="256.1885" gradientTransform="matrix(0.8817 0.4718 -0.4718 0.8817 166.8478 -244.8257)">
			<stop  offset="0.0067" style="stop-color:#EBE9FF"/>
			<stop  offset="0.9967" style="stop-color:#7FA7FF"/>
		</linearGradient>
		<path opacity="0.5" fill="url(#SVGID_1_)" d="M122.331,440.261c22.568,11.836,48.561,17.249,74.028,15.004
			c21.498-1.895,42.389-9.131,60.5-20.989c5.151-3.376,9.894-7.819,14.489-12.858c20.503-22.486,37.664-56.527,68.971-69.427
			c38.606-15.895,110.258-20.353,150.286-75.949c11.496-15.968,16.767-36.477,16.387-56.704
			c-0.307-16.454-5.68-32.489-13.253-46.854c-12.275-23.289-30.004-43.047-50.708-59.761c-11.895-9.6-24.626-18.318-37.653-26.198
			c-26.742-16.174-55.212-29.454-84.928-39.071c-45.224-14.645-94.496-20.641-140.339-8.057
			c-10.311,2.851-20.36,6.625-29.797,11.546c-11.626,6.062-22.22,13.795-32.097,22.291c-13.696,11.803-25.93,25.11-36.656,39.392
			c-37.604,49.976-58.368,113.52-52.984,176.707C34.646,360.571,74.656,415.258,122.331,440.261z"/>
		
			<linearGradient id="SVGID_2_" gradientUnits="userSpaceOnUse" x1="-11.8079" y1="531.8732" x2="35.3925" y2="94.8354" gradientTransform="matrix(-0.6166 -0.7873 0.7873 -0.6166 14.4637 433.715)">
			<stop  offset="0.0067" style="stop-color:#AAD5FF"/>
			<stop  offset="0.9967" style="stop-color:#D5D4FF"/>
		</linearGradient>
		<path fill="url(#SVGID_2_)" d="M31.604,142.835c-25.99,54.039-24.885,122.234,9.59,171.296
			c31.62,44.999,89.831,69.686,144.16,61.137c36.783-5.788,76.763-55.862,127.192-47.833c50.43,8.029,96.845,52.495,134.48,44.394
			c42.462-9.14,70.352-53.992,71.516-97.41c1.164-43.418-19.057-84.708-44.032-120.243c-18.704-26.612-40.338-51.161-64.388-73.062
			c-36.942-33.642-81.132-61.581-130.501-69.278c-38.972-6.076-79.216,0.858-115.989,15.123
			C107.727,48.645,57.594,88.796,31.604,142.835z"/>
	</g>
</g>
<g id="OBJECTS">
	<ellipse fill="#DEDEDE" cx="426.02" cy="416.447" rx="46.621" ry="9.175"/>
	<ellipse fill="#DEDEDE" cx="378.585" cy="393.983" rx="36.782" ry="7.238"/>
	<ellipse fill="#DEDEDE" cx="111.009" cy="377.782" rx="46.621" ry="9.175"/>
	<ellipse fill="#DEDEDE" cx="307.099" cy="407.996" rx="46.621" ry="9.175"/>
	<ellipse fill="#DEDEDE" cx="280.029" cy="373.161" rx="138.904" ry="17.184"/>
	<g>
		<path fill="#133447" d="M128.893,247.738c-0.019-5.745-1.182-11.219-3.274-16.209l10.073-4.223
			c-2.71-6.465-6.616-12.257-11.609-17.216l-7.697,7.751c-3.91-3.883-8.576-7.002-13.756-9.13l4.153-10.108
			c-6.425-2.641-13.23-3.979-20.226-3.979h-0.13l0.065,10.922c-5.758,0.009-11.246,1.169-16.248,3.26l-4.214-10.079
			c-6.469,2.705-12.264,6.605-17.227,11.592l7.742,7.704c-3.887,3.906-7.01,8.569-9.143,13.745L37.3,227.606
			c-2.653,6.441-3.998,13.264-3.998,20.276l0.003,0.26l10.021-0.173h0.898c0.012,5.735,1.166,11.201,3.244,16.187l-10.085,4.202
			c2.697,6.472,6.591,12.272,11.575,17.242l7.711-7.735c3.903,3.891,8.563,7.02,13.737,9.158l-4.173,10.099
			c6.454,2.667,13.292,4.019,20.326,4.019h0.519l0.517-0.049l-0.992-10.864v-0.007c5.736-0.006,11.202-1.156,16.189-3.229
			l4.194,10.089c6.475-2.691,12.278-6.58,17.25-11.556l-7.726-7.718c3.896-3.899,7.029-8.557,9.172-13.73l10.095,4.181
			c2.68-6.471,4.039-13.325,4.038-20.489L128.893,247.738z M86.559,268.134c-11.185,0-20.252-9.067-20.252-20.252
			c0-11.185,9.067-20.252,20.252-20.252s20.252,9.067,20.252,20.252C106.811,259.067,97.744,268.134,86.559,268.134z"/>
		<path fill="#1E5370" d="M86.559,205.544c-23.382,0-42.337,18.955-42.337,42.338s18.955,42.338,42.337,42.338
			c23.382,0,42.338-18.955,42.338-42.338S109.941,205.544,86.559,205.544z M86.559,268.134c-11.185,0-20.252-9.067-20.252-20.252
			c0-11.185,9.067-20.252,20.252-20.252s20.252,9.067,20.252,20.252C106.811,259.067,97.744,268.134,86.559,268.134z"/>
		<circle fill="#133447" cx="86.559" cy="247.882" r="12.417"/>
	</g>
	<g>
		<path fill="#003C5E" d="M492.841,250.839c0.854-5.681,0.537-11.268-0.771-16.518l10.598-2.642
			c-1.696-6.802-4.676-13.121-8.857-18.781l-8.786,6.491c-3.275-4.432-7.412-8.225-12.208-11.115l5.642-9.359
			c-5.948-3.587-12.471-5.944-19.386-7.007l-0.128-0.02l-1.596,10.805c-5.693-0.867-11.293-0.554-16.555,0.752l-2.633-10.602
			c-6.805,1.69-13.126,4.664-18.789,8.839l6.481,8.791c-4.435,3.27-8.232,7.404-11.126,12.196l-9.354-5.65
			c-3.602,5.963-5.968,12.502-7.034,19.432l-0.036,0.257l9.93,1.352l0.888,0.136c-0.86,5.671-0.551,11.249,0.745,16.492
			l-10.606,2.62c1.682,6.807,4.649,13.131,8.82,18.801l8.797-6.473c3.266,4.439,7.397,8.24,12.186,11.139l-5.659,9.347
			c5.974,3.617,12.527,5.993,19.478,7.062l0.513,0.079l0.518,0.03l0.671-10.889l0.001-0.007c5.67,0.866,11.248,0.56,16.492-0.73
			l2.612,10.609c6.808-1.676,13.135-4.637,18.806-8.8l-6.463-8.803c4.443-3.262,8.248-7.389,11.153-12.176l9.342,5.667
			c3.633-5.988,6.018-12.556,7.106-19.637L492.841,250.839z M446.513,273.576c-16.032-2.466-27.03-17.461-24.565-33.494
			c2.466-16.032,17.461-27.03,33.494-24.565s27.03,17.461,24.565,33.494S462.545,276.041,446.513,273.576z"/>
		<path fill="#133447" d="M457.413,202.701c-23.111-3.554-44.727,12.299-48.281,35.41c-3.554,23.111,12.299,44.727,35.41,48.281
			c23.111,3.554,44.727-12.299,48.281-35.41C496.377,227.871,480.524,206.255,457.413,202.701z M446.513,273.576
			c-16.032-2.466-27.03-17.461-24.565-33.494c2.466-16.032,17.461-27.03,33.494-24.565c16.032,2.466,27.03,17.461,24.565,33.494
			S462.545,276.041,446.513,273.576z"/>
	</g>
	<g>
		<polygon fill="#003757" points="353.883,347.011 182.117,347.011 192.794,301.74 343.206,301.74 		"/>
		<path fill="#005C91" d="M362.333,373.857H173.667c-8.82,0-16.037-7.216-16.037-16.037l0,0c0-8.82,7.217-16.037,16.037-16.037
			h188.666c8.82,0,16.037,7.217,16.037,16.037l0,0C378.37,366.64,371.153,373.857,362.333,373.857z"/>
		<path fill="#003757" d="M362.333,360.507H173.667c-6.439,0-12.008-3.854-14.554-9.362c-0.942,2.037-1.482,4.294-1.482,6.675l0,0
			c0,8.82,7.216,16.037,16.037,16.037h188.666c8.82,0,16.037-7.216,16.037-16.037l0,0c0-2.382-0.54-4.638-1.482-6.675
			C374.342,356.653,368.772,360.507,362.333,360.507z"/>
		<path fill="#5498BF" d="M292.818,350.021h-97.792c-1.137,0-2.067-0.93-2.067-2.067l0,0c0-1.137,0.93-2.067,2.067-2.067h97.792
			c1.137,0,2.067,0.93,2.067,2.067l0,0C294.885,349.091,293.955,350.021,292.818,350.021z"/>
		<path fill="#5498BF" d="M340.974,350.021h-35.28c-1.137,0-2.067-0.93-2.067-2.067l0,0c0-1.137,0.93-2.067,2.067-2.067h35.28
			c1.137,0,2.067,0.93,2.067,2.067l0,0C343.041,349.091,342.111,350.021,340.974,350.021z"/>
		<path fill="#005C91" d="M442.739,304.185H93.261c-4.526,0-8.229-3.703-8.229-8.229V87.819c0-4.526,3.703-8.229,8.229-8.229
			h349.478c4.526,0,8.229,3.703,8.229,8.229v208.138C450.968,300.482,447.265,304.185,442.739,304.185z"/>
		<path fill="#003C5E" d="M437.224,274.175H98.776c-3.832,0-6.967-3.135-6.967-6.967V101.078c0-3.832,3.135-6.967,6.967-6.967
			h338.448c3.832,0,6.967,3.135,6.967,6.967v166.129C444.191,271.039,441.056,274.175,437.224,274.175z"/>
		<path fill="#BAF1FF" d="M434.269,271.12H101.731c-3.733,0-6.787-3.054-6.787-6.787v-160.38c0-3.733,3.054-6.787,6.787-6.787
			h332.538c3.733,0,6.787,3.054,6.787,6.787v160.38C441.056,268.066,438.002,271.12,434.269,271.12z"/>
		<path fill="#99D0DE" d="M117.039,271.094h301.923l8.889-173.83c-0.405-0.079-0.821-0.123-1.245-0.123H109.394
			c-0.424,0-0.839,0.044-1.245,0.123L117.039,271.094z"/>
		<circle fill="#E8FBFF" cx="268" cy="289.11" r="8.405"/>
		<circle fill="#003757" cx="268" cy="289.11" r="5.715"/>
		<rect x="117.067" y="46.614" fill="#FFFFFF" width="301.866" height="224.505"/>
		<path fill="#005C91" d="M289.632,203.989h-12.055c-2.862,0-5.204-2.342-5.204-5.204V186.73c0-2.862,2.342-5.204,5.204-5.204
			h12.055c2.862,0,5.204,2.342,5.204,5.204v12.055C294.836,201.647,292.495,203.989,289.632,203.989z"/>
		<path fill="#BAF1FF" d="M326.681,203.989h-12.055c-2.862,0-5.204-2.342-5.204-5.204V186.73c0-2.862,2.342-5.204,5.204-5.204
			h12.055c2.862,0,5.204,2.342,5.204,5.204v12.055C331.885,201.647,329.543,203.989,326.681,203.989z"/>
		<path fill="#8BC9D9" d="M400.779,203.989h-12.055c-2.862,0-5.204-2.342-5.204-5.204V186.73c0-2.862,2.342-5.204,5.204-5.204
			h12.055c2.862,0,5.204,2.342,5.204,5.204v12.055C405.983,201.647,403.641,203.989,400.779,203.989z"/>
		<path fill="#FF9CBD" d="M363.73,203.989h-12.055c-2.862,0-5.204-2.342-5.204-5.204V186.73c0-2.862,2.342-5.204,5.204-5.204h12.055
			c2.862,0,5.204,2.342,5.204,5.204v12.055C368.934,201.647,366.592,203.989,363.73,203.989z"/>
		<polygon fill="#BAF1FF" points="212.617,242.448 196.885,242.448 190.855,271.094 219.502,271.094 		"/>
		<rect x="130.342" y="184.143" fill="#BAF1FF" width="33.631" height="86.951"/>
		<polygon fill="#BAF1FF" points="193.622,271.094 159.991,271.094 171.483,224.323 187.038,224.323 		"/>
		<rect x="129.987" y="108.703" fill="#FF9CBD" width="133.797" height="61.979"/>
		<circle fill="#FFFFFF" cx="160.996" cy="139.693" r="19.174"/>
		<path fill="#005C91" d="M159.572,148.65L159.572,148.65c-0.947,0.947-2.497,0.947-3.444,0l-6.941-6.941
			c-0.947-0.947-0.947-2.497,0-3.444l0,0c0.947-0.947,2.497-0.947,3.444,0l6.941,6.941
			C160.519,146.153,160.519,147.703,159.572,148.65z"/>
		<path fill="#005C91" d="M156.232,148.524L156.232,148.524c-0.947-0.947-0.947-2.497,0-3.444l12.04-12.037
			c0.947-0.947,2.497-0.947,3.444,0l0,0c0.947,0.947,0.947,2.497,0,3.444l-12.04,12.037
			C158.728,149.471,157.179,149.471,156.232,148.524z"/>
		<rect x="272.385" y="108.703" fill="#BAF1FF" width="133.797" height="61.979"/>
		<rect x="121.141" y="51.008" fill="#BAF1FF" width="293.718" height="14.166"/>
		<rect x="185.118" y="55.125" fill="#8BC9D9" width="165.764" height="5.931"/>
		<g>
			<g>
				<path fill="#FFFFFF" d="M402.628,61.831L402.628,61.831c-0.255-0.255-0.255-0.671,0-0.926l6.556-6.556
					c0.255-0.255,0.671-0.255,0.926,0l0,0c0.255,0.255,0.255,0.671,0,0.926l-6.556,6.556
					C403.299,62.086,402.882,62.086,402.628,61.831z"/>
				<path fill="#FFFFFF" d="M410.109,61.831L410.109,61.831c0.255-0.255,0.255-0.671,0-0.926l-6.556-6.556
					c-0.255-0.255-0.671-0.255-0.926,0l0,0c-0.255,0.255-0.255,0.671,0,0.926l6.556,6.556
					C409.438,62.086,409.855,62.086,410.109,61.831z"/>
			</g>
			<g>
				<path fill="#FFFFFF" d="M393.346,54.673c1.884,0,3.417,1.533,3.417,3.417c0,1.884-1.533,3.417-3.417,3.417
					c-1.884,0-3.417-1.533-3.417-3.417C389.928,56.206,391.461,54.673,393.346,54.673 M393.346,53.673
					c-2.44,0-4.417,1.978-4.417,4.417c0,2.44,1.978,4.417,4.417,4.417c2.44,0,4.417-1.978,4.417-4.417
					C397.763,55.651,395.785,53.673,393.346,53.673L393.346,53.673z"/>
			</g>
			<g>
				<path fill="#FFFFFF" d="M384.306,61.808h-7.966c-0.276,0-0.5-0.224-0.5-0.5c0-0.276,0.224-0.5,0.5-0.5h7.966
					c0.276,0,0.5,0.224,0.5,0.5C384.806,61.584,384.582,61.808,384.306,61.808z"/>
			</g>
		</g>
		<g>
			<g>
				<path fill="#FFFFFF" d="M134.325,61.523h-7.965c-0.276,0-0.5-0.224-0.5-0.5c0-0.276,0.224-0.5,0.5-0.5h7.965
					c0.276,0,0.5,0.224,0.5,0.5C134.825,61.299,134.602,61.523,134.325,61.523z"/>
			</g>
		</g>
		<g>
			<g>
				<path fill="#FFFFFF" d="M134.325,58.59h-7.965c-0.276,0-0.5-0.224-0.5-0.5c0-0.276,0.224-0.5,0.5-0.5h7.965
					c0.276,0,0.5,0.224,0.5,0.5C134.825,58.367,134.602,58.59,134.325,58.59z"/>
			</g>
		</g>
		<g>
			<g>
				<path fill="#FFFFFF" d="M134.325,55.658h-7.965c-0.276,0-0.5-0.224-0.5-0.5c0-0.276,0.224-0.5,0.5-0.5h7.965
					c0.276,0,0.5,0.224,0.5,0.5C134.825,55.435,134.602,55.658,134.325,55.658z"/>
			</g>
		</g>
		<path fill="#FFFFFF" d="M247.193,143.445h-56.106c-1.464,0-2.662-1.198-2.662-2.662l0,0c0-1.464,1.198-2.662,2.662-2.662h56.106
			c1.464,0,2.662,1.198,2.662,2.662l0,0C249.855,142.247,248.657,143.445,247.193,143.445z"/>
		<path fill="#FFFFFF" d="M247.193,131.443h-56.106c-1.464,0-2.662-1.198-2.662-2.662l0,0c0-1.464,1.198-2.662,2.662-2.662h56.106
			c1.464,0,2.662,1.198,2.662,2.662l0,0C249.855,130.245,248.657,131.443,247.193,131.443z"/>
		<path fill="#FFFFFF" d="M247.193,155.447h-56.106c-1.464,0-2.662-1.198-2.662-2.662l0,0c0-1.464,1.198-2.662,2.662-2.662h56.106
			c1.464,0,2.662,1.198,2.662,2.662l0,0C249.855,154.249,248.657,155.447,247.193,155.447z"/>
		<path opacity="0.15" d="M194.731,228.862h-2.882v-0.169c0-0.978-0.801-1.779-1.779-1.779h-13.775
			c-0.979,0-1.779,0.801-1.779,1.779v2.025c0,0.978,0.801,1.779,1.779,1.779h13.775c0.978,0,1.779-0.801,1.779-1.779v-0.17h2.038
			v4.999h-10.705c-0.464,0-0.843,0.379-0.843,0.843v6.397c-1.038,0.355-1.795,1.332-1.795,2.487v4.045
			c-0.581,0.403-1.311,0.852-2.244,1.359c-1.612,0.876-2.285,1.857-2.543,2.676c-4.886,1.171-11.456,2.778-17.498,3.862
			c-7.115,1.305-13.436,1.928-15.058,2.109c-0.273,0.033-0.533,0.069-0.784,0.11c-0.326-0.373-0.687-0.711-1.12-0.968
			c0,0-5.435,1.032-9.552,1.681c-0.341,0.054-1.698,0.386-3.656,0.693c-0.078-0.676-0.118-1.252-0.132-1.736
			c1.541-0.51,2.849-1.505,3.726-3.065c3.889-6.918,2.449-13.268,0.178-17.575l0.002-0.003c0,0-2.7-11.395-15.683-7.916
			c-8.706,2.333-10.957,18.169-11.497,28.356c-0.29-0.162-0.588-0.332-0.897-0.517c-2.111-1.293-4.626-3.162-6.735-5.691
			c-2.154-2.49-3.863-5.634-4.966-8.844c-0.806-2.25-1.29-4.51-1.649-6.53c0.693-0.569,1.411-1.672,1.368-3.818
			c-0.083-4.092,0.567-5.186,1.095-5.907c0.528-0.722-1.2-1.798-2.351,0.969c-1.152,2.767-1.152,2.767-1.152,2.767
			s-1.552-6.1-3.609-7.865c-0.285-0.245-0.533-0.324-0.754-0.29v13.492c0.302,0.285,0.623,0.538,0.96,0.739
			c-0.226,2.29-0.243,4.981,0.227,7.857c0.292,2.028,0.876,4.116,1.636,6.169c0.77,2.054,1.829,4.026,3.023,5.835
			c2.39,3.646,5.489,6.436,8.11,8.318c2.646,1.87,4.813,2.913,5.713,3.308c0.384,0.17,0.752,0.31,1.111,0.436
			c-0.132,0.622-0.248,1.26-0.322,1.931c0,0,2.215,0.916,6.579,1.383c0,0,9.482,6.614,3.224,21.001
			c-1.558,3.582-2.871,7.127-4.007,10.537h29.751c-0.956-3.667-2.147-7.281-3.635-10.537c-5.155-11.278,1.637-13.502,1.801-21.27
			c0,0,3.079-0.183,4.98-1.871c0,0,0.15-0.932,0.22-2.289c1.928-0.229,8.527-1.334,15.681-3.538
			c6.152-1.867,12.649-4.568,17.178-7.095c0.739,0.45,1.801,0.681,3.283,0.621v2.685c0,1.451,1.187,2.638,2.638,2.638
			c1.451,0,2.638-1.187,2.638-2.638v-3.894c3.607-1.734,6.308-5.294,4.178-6.057c-1.03-0.369-2.632-0.314-4.178-0.121v-5.544
			c0-1.155-0.757-2.132-1.795-2.487v-5.554h10.705c0.464,0,0.843-0.379,0.843-0.843v-6.686
			C195.574,229.242,195.194,228.862,194.731,228.862z"/>
		<path opacity="0.15" d="M415.473,106.509c-2.435,1.173-5.383,6.689-5.383,6.689s0,0-0.489-2.991
			c-0.49-2.993-2.442-2.402-2.09-1.561c0.352,0.841,0.737,2.074-0.296,6.027c-0.542,2.072-0.091,3.331,0.458,4.065
			c-0.822,1.866-1.824,3.931-3.14,5.902c-1.831,2.825-4.243,5.426-6.942,7.279c-2.474,1.766-5.155,2.885-7.433,3.601
			c-0.583-1.604-1.011-2.577-1.011-2.577c-5.739,4.911-12.196,5.831-17.22,5.564c0.393-2.558,0.443-4.538,0.34-6.018
			c0.56-0.231,1.117-0.483,1.667-0.776c0.605-0.322,1.161-0.678,1.695-1.048c3.235-0.925,5.721-3.967,7.4-7.228
			c2.702-5.246,2.577-12.768-3.164-16.988c-5.63-4.139-10.401-3.912-17.505-3.561c0,0-1.753,3.268,0.456,7.394
			c-3.799,3.231-7.801,9.032-5.982,17.522c0.737,3.44,3.647,5.45,7.331,5.914c-0.004,0.817-0.076,1.916-0.296,3.339
			c-0.219-0.063-0.381-0.109-0.464-0.123c-4.209-0.735-13.368-6.049-13.368-6.049c-1.113,0.634-2.16,1.697-3.106,2.935
			c-0.211-0.199-0.43-0.403-0.663-0.615c-1.558-1.63-3.239-3.979-4.469-6.883c-0.268-0.741-0.634-1.465-0.861-2.253
			c-0.216-0.798-0.433-1.602-0.649-2.404c-0.133-0.399-0.205-0.813-0.257-1.232l-0.194-1.249c-0.068-0.417-0.137-0.832-0.204-1.244
			c-0.083-0.412-0.138-0.825-0.143-1.241c-0.053-0.832-0.105-1.649-0.155-2.445c-0.064-0.8-0.138-1.582-0.093-2.335
			c0.009-0.582,0.01-1.143,0.008-1.691c0.789-0.437,1.683-1.405,1.966-3.545c0.541-4.098,1.368-5.065,2.015-5.684
			c0.647-0.619-0.946-2.025-2.54,0.517c-0.536,0.854-0.891,1.422-1.128,1.798c-0.466,0.743-0.466,0.743-0.466,0.743
			s-0.65-6.389-2.477-8.549c-1.829-2.162-4.945,3.676-4.196,8.399c0.47,2.962,1.241,4.736,2.198,5.718
			c-0.145,0.494-0.291,1.001-0.438,1.532c-0.252,0.786-0.38,1.642-0.508,2.53c-0.127,0.895-0.257,1.813-0.39,2.748
			c-0.08,0.469-0.108,0.951-0.104,1.444c-0.008,0.493-0.015,0.988-0.023,1.487c-0.004,0.502-0.007,1.006-0.011,1.511
			c-0.013,0.506-0.002,1.016,0.078,1.532c0.127,1.035,0.255,2.072,0.382,3.101c0.157,1.032,0.487,2.052,0.734,3.065
			c1.144,4.037,3.225,7.682,5.334,10.229c1.08,1.192,2.026,2.243,2.908,2.973c-0.281,0.685-0.44,1.12-0.44,1.12v0
			c1.63,1.578,3.594,2.775,5.524,3.673c0.772,0.359,1.538,0.671,2.275,0.94c0.737,0.27,1.445,0.497,2.1,0.687
			c0.983,0.286,1.848,0.489,2.515,0.628c0.445,0.093,0.802,0.157,1.048,0.198c0.246,0.041,0.38,0.059,0.38,0.059
			c0.159,4.288,0,8.457-0.345,12.352c-0.099,1.112-0.212,2.202-0.338,3.267c-0.063,0.532-0.129,1.058-0.197,1.576
			c-0.411,3.111-0.918,5.974-1.436,8.493c-0.086,0.42-0.173,0.83-0.26,1.23c-0.173,0.8-0.347,1.561-0.517,2.277
			c-0.052,0.218-0.102,0.423-0.153,0.632l-0.982-0.014l-0.132-8.199c-0.015-0.927-0.793-1.691-1.738-1.706
			c-0.945-0.015-1.699,0.725-1.684,1.653l0.367,22.306l0,0v0l1.416,86.059l0.2,12.163v0l0,0l0.214,13.014h49.192l-0.01-0.879v0l0,0
			l-0.4-36.278v0v0l-0.134-12.157l0,0c0,0,0,0,0,0l-0.134-12.19l0,0v0l-0.135-12.222v0l0,0l-0.135-12.256v0l0,0l-0.135-12.288v0l0,0
			l-0.272-24.677v0v0l-0.108-9.82c-0.01-0.922-0.776-1.682-1.711-1.696c-0.935-0.015-1.685,0.721-1.674,1.644l0.093,8.157
			l-5.317-0.077c-0.249-0.549-0.49-1.101-0.718-1.658c-0.619-1.507-1.165-3.038-1.646-4.567c-0.481-1.53-0.898-3.058-1.259-4.558
			c-2.409-10.019-2.323-18.813-2.323-18.813c0.285,0.012,0.572,0.013,0.859,0.004c0.861-0.028,1.725-0.147,2.557-0.319
			c2.493-0.517,4.693-1.516,5.637-1.983c0.315-0.156,0.49-0.252,0.49-0.252c-0.141-1.136-0.335-2.257-0.557-3.348
			c0.046-0.017,0.089-0.031,0.136-0.048c3.016-1.144,6.712-3.042,9.908-5.95c1.594-1.441,3.093-3.074,4.326-4.862
			c1.224-1.79,2.283-3.659,3.041-5.547c1.131-2.664,1.74-5.275,2.051-7.554c1.743-0.494,3.459-1.943,3.92-4.411
			C416.724,111.385,417.907,105.337,415.473,106.509z M379.542,224.541l-12.133,0.027c-0.096-2.932-0.214-6.038-0.318-9.174
			l11.161-0.028C378.694,218.51,379.12,221.623,379.542,224.541z M376.947,206.526c0.284,1.789,0.558,3.624,0.825,5.469
			l-10.786,0.028c-0.057-2.008-0.103-4.005-0.128-5.951c-0.018-1.076-0.027-2.131-0.032-3.168l9.553-0.027
			C376.572,204.065,376.763,205.283,376.947,206.526z M367.02,192.63c0.037-0.767,0.08-1.474,0.125-2.141l0.746-0.002
			c0.692,0.118,1.406,0.202,2.168,0.199c1.081-0.003,2.105-0.077,3.07-0.216l0.991-0.003c0.192,0.935,0.401,1.982,0.622,3.147
			c0.33,1.761,0.698,3.758,1.073,5.914l-8.981,0.026C366.858,197.005,366.92,194.652,367.02,192.63z M350.827,178.411l-0.004-0.205
			l0.058,0C350.862,178.275,350.845,178.343,350.827,178.411z M351.018,187.212l-0.112-5.164c1.552,0.536,3.096,0.995,4.624,1.374
			c-0.013,0.104-0.032,0.201-0.044,0.306c-0.016,0.133-0.032,0.293-0.048,0.465c-0.009,0.09-0.017,0.187-0.026,0.287
			c-0.005,0.059-0.01,0.122-0.015,0.184c-0.055,0.668-0.106,1.519-0.143,2.535L351.018,187.212z M351.288,199.6l-0.197-9.06
			l4.115-0.013c0.003,0.551,0.01,1.118,0.025,1.711c0.052,2.205,0.189,4.696,0.409,7.349L351.288,199.6z M351.361,202.949
			l4.593-0.013c0.127,1.211,0.27,2.444,0.43,3.691c0.225,1.789,0.485,3.605,0.771,5.422l-5.595,0.014L351.361,202.949z
			 M351.632,215.432l6.082-0.015c0.552,3.149,1.172,6.252,1.83,9.169l-7.713,0.017L351.632,215.432z M351.905,227.993l8.441-0.018
			c0.425,1.711,0.858,3.324,1.292,4.812c-0.54,0.52-1.04,1.251-1.44,2.304c-0.297,0.781-0.334,1.49-0.231,2.114l-7.862,0.015
			L351.905,227.993z M395.723,291.945l0.303,9.526l-42.524,0.003l-0.207-9.514L395.723,291.945z M395.612,288.445l-42.392,0.019
			l-0.206-9.457l42.296-0.03L395.612,288.445z M394.9,266.091l0.3,9.408l-42.261,0.034l-0.204-9.397L394.9,266.091z M394.79,262.635
			l-42.131,0.049l-0.203-9.34l42.036-0.06L394.79,262.635z M393.978,237.141l-4.19,0.008c-0.012-0.091-0.007-0.179-0.027-0.271
			c-0.096-0.443-0.255-0.894-0.501-1.331c-0.71-1.264-1.735-2.166-2.85-2.713c0.203-1.493,0.382-3.148,0.536-4.916l6.737-0.014
			L393.978,237.141z M393.576,224.51l-6.375,0.014c0.184-2.905,0.301-6.015,0.34-9.181l5.743-0.014L393.576,224.51z
			 M393.176,211.956l-5.624,0.014c-0.011-2.077-0.055-4.153-0.137-6.185c-0.031-0.993-0.074-1.971-0.123-2.938l5.594-0.016
			L393.176,211.956z M392.779,199.478l-5.692,0.017c-0.193-2.706-0.435-5.229-0.679-7.424c-0.065-0.573-0.131-1.115-0.198-1.642
			l6.28-0.02L392.779,199.478z M390.802,181.557c-0.807-1.111-1.544-2.28-2.228-3.484l3.522-0.012l0.287,9.016l-6.644,0.022
			c-0.06-0.384-0.118-0.732-0.173-1.058h0c-0.005-0.032-0.01-0.06-0.016-0.092c-0.049-0.291-0.096-0.555-0.14-0.795
			c-0.017-0.096-0.034-0.188-0.05-0.275c-0.015-0.079-0.029-0.156-0.043-0.229c-0.031-0.16-0.059-0.308-0.085-0.43
			c-0.065-0.321-0.136-0.629-0.211-0.928C388.653,182.417,390.802,181.557,390.802,181.557z M381.68,240.604l5.085-0.009
			c0.082,0,0.157-0.021,0.237-0.028l7.084-0.013l0.296,9.294l-42.001,0.064l-0.202-9.283l29.177-0.052
			C381.464,240.589,381.571,240.605,381.68,240.604z M380.047,227.933c0.28,1.821,0.561,3.526,0.845,5.06
			c-0.75,0.474-1.474,1.255-2.065,2.573c-0.255,0.569-0.352,1.104-0.362,1.603l-7.28,0.014c0.105-0.47,0.108-0.972-0.032-1.479
			c-0.12-0.437-0.303-0.877-0.572-1.298c-0.779-1.221-1.853-2.058-2.996-2.532c-0.013-1.234-0.04-2.546-0.076-3.915L380.047,227.933
			z"/>
		<path opacity="0.15" d="M329.416,222.887l-11.878-4.161c-2.82-0.988-6.142,0.581-7.383,3.487l-5.223,12.239
			c-1.24,2.906,0.052,6.092,2.873,7.08l11.878,4.161c0.058,0.021,0.118,0.033,0.177,0.052c0.205,0.516,0.416,1.098,0.635,1.773
			c0.534,1.644,1.305,2.523,2.054,2.988c-0.494,2.326-0.953,5.035-1.616,7.87c-0.206,0.943-0.383,1.908-0.604,2.872
			c-0.241,0.957-0.485,1.923-0.729,2.891c-0.426,1.95-1.062,3.828-1.594,5.667c-0.946,2.821-1.932,5.453-2.959,7.553
			c-1.044-1.919-1.881-3.1-1.881-3.1c-6.158,6.222-10.793,9.279-14.194,10.726c0.208-1.347,0.313-2.612,0.359-3.7
			c1.675-0.759,3.369-1.874,5.003-3.41c2.673-2.512,4.456-5.642,5.523-8.857c0.209,0.113,0.448,0.187,0.741,0.182
			c2.819-0.046,6.5-7.425,3.472-8.656c-0.692-0.281-1.323-0.286-1.89-0.14c0.004-0.45,0-0.901-0.036-1.353
			c-0.689-8.719-5.402-12.57-15.328-11.098c-9.926,1.473-12.473,10.41-12.473,10.41c-0.049,0.176-0.076,0.349-0.119,0.525
			c-0.516-0.235-1.148-0.324-1.932-0.14c-3.343,0.786-2.023,8.514,0.721,8.949c0.472,0.075,0.875-0.053,1.226-0.3
			c-0.144,3.064,0.362,6.409,1.906,9.916c0.879,1.996,2.313,3.453,4.086,4.303c-0.046,1.126-0.171,2.46-0.44,3.763
			c-4.603-1.697-10.853-7.559-10.853-7.559c-0.017,0.01-0.033,0.022-0.05,0.032c-0.141-0.229-0.282-0.475-0.447-0.733
			c-0.245-0.403-0.53-0.829-0.764-1.34c-1.09-1.935-2.125-4.65-2.896-7.73c-0.166-0.78-0.435-1.542-0.54-2.368
			c-0.139-0.819-0.278-1.643-0.417-2.466c-0.158-0.823-0.177-1.681-0.281-2.514c-0.065-0.841-0.22-1.664-0.228-2.497
			c-0.036-0.832-0.071-1.648-0.105-2.444c-0.04-0.797-0.108-1.573-0.081-2.327c0.003-0.865-0.008-1.688-0.031-2.469
			c0.137-0.019,0.279-0.045,0.433-0.086c1.004-0.273,2.333-1.097,3.461-3.361c0.474-0.952,0.902-1.726,1.295-2.372l1.564,0.548
			c2.82,0.988,6.142-0.581,7.383-3.487l5.223-12.239c1.24-2.906-0.053-6.092-2.873-7.08l-11.878-4.161
			c-2.82-0.988-6.142,0.581-7.383,3.487l-5.223,12.239c-1.24,2.906,0.053,6.092,2.873,7.08l0.942,0.33
			c-0.044,0.178-0.096,0.355-0.13,0.532c-0.627,3.239-0.512,5.319,0.087,6.616c-0.433,1.222-0.879,2.641-1.329,4.206
			c-0.255,0.801-0.409,1.651-0.582,2.53c-0.164,0.885-0.333,1.794-0.505,2.719c-0.186,0.93-0.216,1.891-0.323,2.862
			c-0.069,0.972-0.213,1.959-0.203,2.95c0.003,0.996,0.006,1.993,0.009,2.983c-0.019,0.997,0.145,1.976,0.217,2.952
			c0.395,3.89,1.318,7.543,2.514,10.295c0.254,0.704,0.579,1.331,0.867,1.912c0.298,0.576,0.533,1.119,0.82,1.568
			c0.557,0.904,0.96,1.591,1.25,1.963c0.01,0.014,0.02,0.025,0.03,0.039c-1.028,1.77-1.614,3.094-1.614,3.094
			c3.658,8.46,9.376,10.551,9.376,10.551c-0.104,1.539-0.209,3.055-0.314,4.55h29.952c0.418-5.333,0.986-8.827,0.986-8.827
			c5.09,0.142,9.079-4.632,9.079-4.632c-0.011-0.496-0.045-0.99-0.092-1.482c0.001-0.001,0.001-0.001,0.002-0.002
			c0.436-0.461,0.95-1.291,1.713-2.394c0.394-0.551,0.686-1.183,1.08-1.871c0.376-0.69,0.802-1.44,1.123-2.246
			c1.554-3.223,2.68-7.271,3.55-11.499c1.453-7.57,1.52-15.653,0.981-21.206c1.36-1.097,2.219-3.353,2.134-7.632
			c-0.028-1.386-0.368-2.786-0.877-4.053l3.574-8.374C333.529,227.061,332.236,223.875,329.416,222.887z"/>
	</g>
	<g>
		<g>
			<g>
				<path fill="#0E2533" d="M355.418,394.571c-0.927,0-1.679-0.752-1.679-1.679V168.517c0-0.927,0.752-1.679,1.679-1.679
					c0.927,0,1.679,0.751,1.679,1.679v224.376C357.097,393.819,356.345,394.571,355.418,394.571z"/>
			</g>
		</g>
		<g>
			<g>
				<path fill="#0E2533" d="M401.321,394.571c-0.927,0-1.679-0.752-1.679-1.679V168.517c0-0.927,0.752-1.679,1.679-1.679
					c0.927,0,1.679,0.751,1.679,1.679v224.376C403,393.819,402.248,394.571,401.321,394.571z"/>
			</g>
		</g>
		<g>
			<g>
				<path fill="#0E2533" d="M401.321,180.081h-45.903c-0.927,0-1.679-0.751-1.679-1.679c0-0.927,0.752-1.679,1.679-1.679h45.903
					c0.927,0,1.679,0.751,1.679,1.679C403,179.33,402.248,180.081,401.321,180.081z"/>
			</g>
			<g>
				<path fill="#0E2533" d="M401.321,192.549h-45.903c-0.927,0-1.679-0.751-1.679-1.679c0-0.927,0.752-1.679,1.679-1.679h45.903
					c0.927,0,1.679,0.752,1.679,1.679C403,191.798,402.248,192.549,401.321,192.549z"/>
			</g>
			<g>
				<path fill="#0E2533" d="M401.321,205.017h-45.903c-0.927,0-1.679-0.752-1.679-1.679c0-0.927,0.752-1.679,1.679-1.679h45.903
					c0.927,0,1.679,0.751,1.679,1.679C403,204.266,402.248,205.017,401.321,205.017z"/>
			</g>
			<g>
				<path fill="#0E2533" d="M401.321,217.485h-45.903c-0.927,0-1.679-0.751-1.679-1.679c0-0.927,0.752-1.679,1.679-1.679h45.903
					c0.927,0,1.679,0.752,1.679,1.679C403,216.733,402.248,217.485,401.321,217.485z"/>
			</g>
			<g>
				<path fill="#0E2533" d="M401.321,229.953h-45.903c-0.927,0-1.679-0.752-1.679-1.679c0-0.927,0.752-1.679,1.679-1.679h45.903
					c0.927,0,1.679,0.752,1.679,1.679C403,229.201,402.248,229.953,401.321,229.953z"/>
			</g>
			<g>
				<path fill="#0E2533" d="M401.321,242.421h-45.903c-0.927,0-1.679-0.752-1.679-1.679c0-0.927,0.752-1.679,1.679-1.679h45.903
					c0.927,0,1.679,0.752,1.679,1.679C403,241.669,402.248,242.421,401.321,242.421z"/>
			</g>
			<g>
				<path fill="#0E2533" d="M401.321,254.889h-45.903c-0.927,0-1.679-0.752-1.679-1.679c0-0.927,0.752-1.679,1.679-1.679h45.903
					c0.927,0,1.679,0.752,1.679,1.679C403,254.137,402.248,254.889,401.321,254.889z"/>
			</g>
			<g>
				<path fill="#0E2533" d="M401.321,267.356h-45.903c-0.927,0-1.679-0.752-1.679-1.679c0-0.927,0.752-1.679,1.679-1.679h45.903
					c0.927,0,1.679,0.752,1.679,1.679C403,266.604,402.248,267.356,401.321,267.356z"/>
			</g>
			<g>
				<path fill="#0E2533" d="M401.321,279.824h-45.903c-0.927,0-1.679-0.752-1.679-1.679c0-0.927,0.752-1.679,1.679-1.679h45.903
					c0.927,0,1.679,0.752,1.679,1.679C403,279.072,402.248,279.824,401.321,279.824z"/>
			</g>
			<g>
				<path fill="#0E2533" d="M401.321,292.293h-45.903c-0.927,0-1.679-0.752-1.679-1.679c0-0.927,0.752-1.679,1.679-1.679h45.903
					c0.927,0,1.679,0.752,1.679,1.679C403,291.541,402.248,292.293,401.321,292.293z"/>
			</g>
			<g>
				<path fill="#0E2533" d="M401.321,304.761h-45.903c-0.927,0-1.679-0.752-1.679-1.679c0-0.927,0.752-1.679,1.679-1.679h45.903
					c0.927,0,1.679,0.752,1.679,1.679C403,304.009,402.248,304.761,401.321,304.761z"/>
			</g>
			<g>
				<path fill="#0E2533" d="M401.321,317.228h-45.903c-0.927,0-1.679-0.752-1.679-1.679c0-0.927,0.752-1.679,1.679-1.679h45.903
					c0.927,0,1.679,0.752,1.679,1.679C403,316.477,402.248,317.228,401.321,317.228z"/>
			</g>
			<g>
				<path fill="#0E2533" d="M401.321,329.696h-45.903c-0.927,0-1.679-0.752-1.679-1.679c0-0.927,0.752-1.679,1.679-1.679h45.903
					c0.927,0,1.679,0.752,1.679,1.679C403,328.944,402.248,329.696,401.321,329.696z"/>
			</g>
			<g>
				<path fill="#0E2533" d="M401.321,342.164h-45.903c-0.927,0-1.679-0.752-1.679-1.679c0-0.927,0.752-1.679,1.679-1.679h45.903
					c0.927,0,1.679,0.752,1.679,1.679C403,341.412,402.248,342.164,401.321,342.164z"/>
			</g>
			<g>
				<path fill="#0E2533" d="M401.321,354.632h-45.903c-0.927,0-1.679-0.752-1.679-1.679c0-0.927,0.752-1.679,1.679-1.679h45.903
					c0.927,0,1.679,0.752,1.679,1.679C403,353.88,402.248,354.632,401.321,354.632z"/>
			</g>
			<g>
				<path fill="#0E2533" d="M401.321,367.101h-45.903c-0.927,0-1.679-0.752-1.679-1.679c0-0.927,0.752-1.679,1.679-1.679h45.903
					c0.927,0,1.679,0.752,1.679,1.679C403,366.349,402.248,367.101,401.321,367.101z"/>
			</g>
			<g>
				<path fill="#0E2533" d="M401.321,379.568h-45.903c-0.927,0-1.679-0.752-1.679-1.679c0-0.927,0.752-1.679,1.679-1.679h45.903
					c0.927,0,1.679,0.752,1.679,1.679C403,378.816,402.248,379.568,401.321,379.568z"/>
			</g>
		</g>
	</g>
	<g>
		<path fill="#FFBE8F" d="M345.964,108.703c0.78-0.443,1.68-1.417,1.993-3.553c0.594-4.05,1.415-5.021,2.055-5.646
			c0.64-0.625-0.887-1.971-2.479,0.568c-0.535,0.854-0.891,1.42-1.127,1.796L345.964,108.703z"/>
		<rect x="129.987" y="75.108" fill="#8BC9D9" width="276.026" height="26.369"/>
		<text transform="matrix(1 0 0 1 361.5296 88.2923)" fill="#005C91" font-family="'Comfortaa-Thin'" font-size="10.7099">SEARCH</text>
		<rect x="138.411" y="92.486" fill="#005C91" width="259.178" height="1.251"/>
		<path fill="#FFBE8F" d="M346.406,101.869c-0.466,0.743-0.466,0.743-0.466,0.743s-0.524-6.272-2.262-8.353
			c-1.738-2.08-4.864,3.729-4.219,8.357c0.805,5.777,2.848,6.916,5.201,6.455c0,0,0.604,0.029,1.303-0.368L346.406,101.869z"/>
		<g>
			<g>
				<g>
					<path fill="#005C91" d="M359.666,90.428c-0.128,0-0.256-0.049-0.353-0.146l-3.268-3.267c-0.195-0.195-0.195-0.512,0-0.707
						c0.195-0.195,0.512-0.195,0.707,0l3.267,3.267c0.195,0.195,0.195,0.512,0,0.707C359.922,90.379,359.794,90.428,359.666,90.428z
						"/>
				</g>
				<g>
					<path fill="#005C91" d="M353.275,80.121c0.913,0,1.771,0.355,2.416,1.001c1.332,1.332,1.332,3.5,0,4.833
						c-0.645,0.646-1.504,1.001-2.416,1.001c-0.913,0-1.771-0.355-2.416-1.001c-1.332-1.332-1.332-3.5,0-4.833
						C351.504,80.476,352.363,80.121,353.275,80.121 M353.275,79.121c-1.13,0-2.261,0.431-3.124,1.294
						c-1.725,1.725-1.725,4.522,0,6.247c0.863,0.863,1.993,1.294,3.124,1.294c1.13,0,2.261-0.431,3.123-1.294
						c1.725-1.725,1.725-4.522,0-6.247C355.536,79.552,354.406,79.121,353.275,79.121L353.275,79.121z"/>
				</g>
				<g>
					<path fill="#005C91" d="M357.154,88.417c-0.256,0-0.512-0.098-0.707-0.293l-0.756-0.756c-0.391-0.391-0.391-1.023,0-1.414
						c0.391-0.391,1.023-0.391,1.414,0l0.756,0.756c0.391,0.391,0.391,1.023,0,1.414C357.666,88.319,357.41,88.417,357.154,88.417z"
						/>
				</g>
			</g>
		</g>
		<g>
			<g>
				<path fill="#FFBE8F" d="M370.817,106.783c-4.107,2.829-9.878,9.143-7.952,18.917c1.214,6.162,9.485,7.55,16.715,3.539
					c7.23-4.011,9.346-11.623,8.438-16.853C387.111,107.156,377.403,102.246,370.817,106.783z"/>
				<g>
					<path fill="#FFBE8F" d="M373.159,141.54c-0.286,0-0.576-0.031-0.866-0.095c-2.157-0.477-3.52-2.611-3.044-4.769
						c1.128-5.103,0.588-7.122,0.582-7.142c0.051,0.179,0.099,0.259,0.099,0.259l7.34-3.184c0.372,0.858,1.458,4.247-0.208,11.792
						C376.648,140.268,374.995,141.54,373.159,141.54z"/>
				</g>
				<path fill="#003C5E" d="M370.715,110.689c0,0-2.887,4.499-3.945,6.111c0,0,1.936,1.468,3.254-0.237
					c1.317-1.706,2.262-4.921,4.945-4.877c1.785,0.029,1.531,1.907,0.751,3.421c-1.193,2.317-3.102,3.498-4.323,3.354
					c0,0-3.206,5.111,3.269,8.751c6.475,3.641,11.242-1.117,13.966-6.386c2.724-5.268,2.691-12.728-2.897-16.78
					c-5.468-3.965-10.144-3.63-17.098-3.119C368.638,100.928,366.088,105.617,370.715,110.689z"/>
			</g>
			<g>
				<path fill="#FFBE8F" d="M413.967,113.386c-0.994,2.342-2.254,5.359-4.133,8.19c-1.839,2.853-4.252,5.495-6.94,7.397
					c-2.654,1.95-5.543,3.163-7.902,3.912c-2.378,0.726-4.22,1.023-4.972,1.151c-3.891,0.645-5.44,1.816-5.618,4.934
					c-0.082,1.538,0.427,2.697,1.62,3.4c1.185,0.694,3.051,0.944,5.564,0.5c0.968-0.168,3.322-0.662,6.339-1.844
					c2.995-1.199,6.672-3.166,9.866-6.133c1.593-1.47,3.094-3.131,4.333-4.941c1.23-1.812,2.297-3.699,3.066-5.598
					c1.613-3.776,2.213-7.437,2.374-10.182L413.967,113.386z"/>
			</g>
			<g>
				<path fill="#FFBE8F" d="M342.372,105.511c-0.428,1.208-0.875,2.63-1.328,4.206c-0.258,0.781-0.398,1.627-0.538,2.505
					c-0.139,0.885-0.282,1.794-0.427,2.719c-0.086,0.464-0.122,0.941-0.127,1.427c-0.016,0.486-0.032,0.976-0.048,1.468
					c-0.012,0.495-0.025,0.993-0.037,1.492c-0.022,0.5-0.019,1.004,0.049,1.512c0.106,1.021,0.212,2.042,0.317,3.058
					c0.135,1.018,0.438,2.019,0.661,3.017c1.044,3.974,3.011,7.546,5.025,10.032c1.061,1.193,1.988,2.247,2.857,2.956
					c0.421,0.369,0.782,0.704,1.107,0.956c0.334,0.242,0.604,0.437,0.803,0.581c2.072,1.482,3.915,1.958,5.268,1.738
					c1.347-0.215,2.246-1.143,2.667-2.62c0.426-1.491,0.447-2.635-0.003-3.637c-0.442-0.991-1.366-1.807-2.756-2.809
					c-0.137-0.093-0.324-0.219-0.555-0.375c-0.227-0.161-0.474-0.382-0.775-0.613c-0.628-0.435-1.278-1.12-2.086-1.859
					c-1.495-1.585-3.097-3.88-4.249-6.731c-0.249-0.728-0.594-1.437-0.802-2.212c-0.197-0.785-0.395-1.575-0.593-2.364
					c-0.123-0.391-0.186-0.8-0.229-1.213l-0.168-1.23c-0.06-0.41-0.119-0.819-0.178-1.224c-0.073-0.405-0.12-0.812-0.118-1.223
					c-0.038-0.82-0.074-1.626-0.11-2.411c-0.049-0.788-0.107-1.558-0.052-2.302c0.047-1.488,0.058-2.872,0.027-4.092
					L342.372,105.511z"/>
			</g>
			<path fill="#005C91" d="M363.513,183.771c0,0,3.97,8.986,13.084,8.986s14.533-4.585,13.053-14.203
				C389.65,178.554,370.839,175.345,363.513,183.771z"/>
			<g>
				<g>
					<path fill="#005C91" d="M391.835,236.225c1.332-6.861,2.223-18.091,2.116-28.269c-0.002-5.084-0.288-9.905-0.605-13.753
						c-0.324-3.848-0.751-6.731-0.962-7.917c-1.081-6.127-3.953-8.48-8.04-7.097c-4.113,1.383-5.313,3.766-4.326,9.3
						c0.189,1.067,0.717,3.659,1.308,7.229c0.583,3.569,1.295,8.091,1.893,12.95c1.298,9.698,2.264,20.68,3.462,27.495
						L391.835,236.225z"/>
				</g>
			</g>
			<g>
				<g>
					<path fill="#005C91" d="M372.891,237.01c0.298-7.188-0.12-18.672,0.013-28.823c0.047-5.075,0.237-9.805,0.518-13.482
						c0.279-3.683,0.652-6.278,0.799-7.308c0.374-2.693,0.354-4.355-0.292-5.436c-0.323-0.525-0.803-1.013-1.383-1.536
						c-0.295-0.277-0.563-0.629-0.853-0.991c-0.298-0.36-0.633-0.735-1.023-1.107c-0.39-0.373-0.784-0.692-1.2-0.935
						c-0.415-0.251-0.852-0.418-1.345-0.418c-1.019-0.004-2.018,0.414-2.923,1.181c-1.788,1.52-2.953,4.124-3.424,7.533
						c-0.191,1.328-0.472,4.49-0.463,8.586c0.003,4.1,0.274,9.156,0.846,14.439c1.111,10.575,3.403,22.064,5.622,28.988
						L372.891,237.01z"/>
				</g>
				<g>
					<path fill="#005C91" d="M391.835,236.225c1.332-6.861,2.223-18.091,2.116-28.269c-0.002-5.084-0.288-9.905-0.605-13.753
						c-0.324-3.848-0.751-6.731-0.962-7.917c-1.081-6.127-3.953-8.48-8.04-7.097c-4.113,1.383-5.313,3.766-4.326,9.3
						c0.189,1.067,0.717,3.659,1.308,7.229c0.583,3.569,1.295,8.091,1.893,12.95c1.298,9.698,2.264,20.68,3.462,27.495
						L391.835,236.225z"/>
				</g>
				<path fill="#004973" d="M392.671,188.124c-0.113-0.794-0.213-1.425-0.287-1.838c-0.492-2.79-1.359-4.788-2.54-6.016
					c-0.04-0.553-0.103-1.124-0.194-1.715c0,0-9.939-1.692-18.182,0.619c-0.242-0.279-0.499-0.563-0.797-0.848
					c-0.391-0.373-0.784-0.692-1.2-0.935c-0.415-0.251-0.852-0.418-1.345-0.418c-1.019-0.004-2.018,0.414-2.923,1.181
					c-1.788,1.52-2.953,4.123-3.424,7.533c-0.064,0.444-0.137,1.108-0.207,1.927C374.038,191.062,385.685,189.663,392.671,188.124z"
					/>
			</g>
			<path fill="#FF595F" d="M369.169,134.638c1.081,0.171,14.432,5.107,25.377-4.476c0,0,2.936,6.864,3.757,14.251
				c0,0-4.957,2.838-9.457,2.722c0,0-0.499,22.525,9.352,36.48c0,0-20.521,7.935-42.136,0c0,0,6.064-17.222,5.651-36.748
				c0,0-8.437-0.978-13.45-5.901c0,0,3.495-9.458,7.907-12.073C356.169,128.892,365.052,133.989,369.169,134.638z"/>
			<path fill="#CC3F44" d="M388.845,147.135c4.5,0.116,9.457-2.722,9.457-2.722s-6.002,2.329-11.504,0.714
				c0,0-1.249,26.92,11.398,38.487C388.347,169.66,388.845,147.135,388.845,147.135z"/>
			<path fill="#CC3F44" d="M365.15,145.773c-12.11-0.969-16.889-4.808-16.889-4.808c5.014,4.923,13.45,5.901,13.45,5.901
				c0.413,19.526-5.651,36.748-5.651,36.748C364.893,171.724,365.15,145.773,365.15,145.773z"/>
			<path fill="#FFBE8F" d="M414.057,116.503c0,0-2.532-0.953-1.471-4.907c1.06-3.953,0.691-5.17,0.352-5.998
				c-0.339-0.827,1.595-1.458,2.051,1.504c0.455,2.963,0.455,2.963,0.455,2.963s2.968-5.55,5.388-6.771
				c2.42-1.221,1.196,4.82,0.384,9.008C420.404,116.49,416.035,117.859,414.057,116.503z"/>
			<path fill="#003C5E" d="M389.18,234.21c-1.464,0.11-3.465,0.408-4.874,3.276c-0.481,0.979-0.505,1.868-0.328,2.614
				c0.332,1.399,1.64,2.348,3.078,2.348h5.16c1.945,0,3.522-1.741,3.155-3.651c-0.084-0.437-0.231-0.88-0.467-1.311
				C393.648,235.187,391.274,234.053,389.18,234.21z"/>
			<path fill="#003C5E" d="M370.041,233.41c-1.454,0.2-3.433,0.621-4.663,3.57c-0.42,1.007-0.389,1.896-0.166,2.629
				c0.418,1.376,1.782,2.242,3.217,2.154l5.15-0.319c1.941-0.12,3.407-1.955,2.924-3.839c-0.111-0.431-0.285-0.865-0.547-1.28
				C374.561,234.11,372.122,233.124,370.041,233.41z"/>
		</g>
	</g>
	<g>
		<g>
			<path fill="#FFBE8F" d="M127.003,231.049c3.018,3.97,6.529,11.771,1.646,20.454c-3.078,5.475-11.368,4.21-16.984-1.858
				c-5.616-6.068-5.248-13.961-2.753-18.646C111.409,226.314,122.164,224.682,127.003,231.049z"/>
			<g>
				<path fill="#FFBE8F" d="M121.722,264.514c-1.836,0-3.49-1.272-3.902-3.139c-1.667-7.545-0.581-10.933-0.209-11.792l7.34,3.184
					c0,0,0.048-0.08,0.099-0.26c-0.006,0.02-0.545,2.04,0.582,7.144c0.477,2.156-0.886,4.292-3.043,4.769
					C122.298,264.482,122.008,264.514,121.722,264.514z"/>
			</g>
		</g>
		<g>
			<path fill="#FFBE8F" d="M83.321,230.274c-0.501,2.703-0.796,6.402-0.134,10.454c0.292,2.028,0.876,4.116,1.636,6.169
				c0.77,2.054,1.829,4.026,3.023,5.835c2.39,3.646,5.489,6.436,8.11,8.318c2.646,1.869,4.813,2.913,5.713,3.308
				c2.333,1.033,4.204,1.237,5.521,0.847c1.327-0.397,2.099-1.4,2.388-2.913c0.574-3.07-0.65-4.578-4.273-6.136
				c-0.7-0.305-2.417-1.035-4.552-2.309c-2.111-1.292-4.626-3.162-6.735-5.691c-2.154-2.49-3.864-5.634-4.966-8.844
				c-1.146-3.199-1.647-6.429-2.051-8.941L83.321,230.274z"/>
		</g>
		<g>
			<path fill="#FFBE8F" d="M172.62,249.236c0.147-0.885,0.751-2.065,2.647-3.096c3.597-1.954,4.225-3.06,4.591-3.876
				c0.366-0.816,2.156,0.152,0.322,2.523c-0.617,0.797-1.026,1.326-1.298,1.677L172.62,249.236z"/>
			<path fill="#003757" d="M180.15,245.186L180.15,245.186c-0.464,0-0.843-0.379-0.843-0.843v-12.491
				c0-0.464,0.38-0.843,0.843-0.843l0,0c0.464,0,0.843,0.379,0.843,0.843v12.491C180.993,244.807,180.614,245.186,180.15,245.186z"
				/>
			<path fill="#003757" d="M179.307,231.853L179.307,231.853c0-0.464,0.38-0.843,0.843-0.843h11.548
				c0.464,0,0.843,0.379,0.843,0.843l0,0c0,0.464-0.38,0.843-0.843,0.843H180.15C179.686,232.696,179.307,232.316,179.307,231.853z"
				/>
			<path fill="#003757" d="M191.698,224.323L191.698,224.323c0.464,0,0.843,0.38,0.843,0.843v6.686c0,0.464-0.38,0.843-0.843,0.843
				l0,0c-0.464,0-0.843-0.379-0.843-0.843v-6.686C190.855,224.703,191.235,224.323,191.698,224.323z"/>
			<path fill="#003757" d="M192.542,225.167L192.542,225.167c0,0.464-0.38,0.843-0.843,0.843h-8.144
				c-0.464,0-0.843-0.38-0.843-0.843l0,0c0-0.464,0.379-0.843,0.843-0.843h8.144C192.162,224.323,192.542,224.703,192.542,225.167z"
				/>
			<path fill="#70C6DB" d="M187.038,227.958h-13.775c-0.979,0-1.779-0.8-1.779-1.779v-2.025c0-0.978,0.801-1.779,1.779-1.779h13.775
				c0.978,0,1.779,0.801,1.779,1.779v2.025C188.817,227.158,188.016,227.958,187.038,227.958z"/>
			<path fill="#005C91" d="M180.15,258.991L180.15,258.991c-1.451,0-2.638-1.187-2.638-2.638v-15.616
				c0-1.451,1.187-2.638,2.638-2.638l0,0c1.451,0,2.638,1.187,2.638,2.638v15.616C182.788,257.803,181.601,258.991,180.15,258.991z"
				/>
			<path fill="#FFBE8F" d="M178.882,246.464c-0.537,0.693-0.537,0.693-0.537,0.693s6.068-1.671,8.62-0.757
				c2.552,0.914-1.823,5.851-6.39,6.842c-5.7,1.237-7.474-0.289-7.853-2.656c0,0-0.235-0.557-0.103-1.35L178.882,246.464z"/>
			<g>
				<path fill="#FFBE8F" d="M175.159,248.238c-4.965,1.16-12.819,3.163-19.933,4.44c-7.115,1.305-13.436,1.928-15.058,2.109
					c-4.203,0.503-5.798,1.905-5.706,5.004c0.088,3.072,2.222,4.449,6.778,3.903c1.763-0.196,8.504-1.302,15.811-3.554
					c7.318-2.22,15.137-5.624,19.533-8.508L175.159,248.238z"/>
			</g>
		</g>
		<g>
			<path fill="#FFBE8F" d="M133.823,375.131c1.097-3.306,2.161-7.771,2.786-12.629c0.653-4.86,1.032-10.126,1.175-15.092
				c0.278-9.934-0.288-18.688-0.516-20.951c-0.597-5.857-2.903-8.112-7.178-7.526c-4.287,0.587-5.894,3.148-5.32,8.776
				c0.22,2.176,1.337,10.563,2.265,20.053c0.46,4.744,0.846,9.753,1.135,14.395c0.314,4.651,0.374,8.887,0.559,12.189
				L133.823,375.131z"/>
		</g>
		<g>
			<path fill="#FFBE8F" d="M89.402,356.149c1.744,0.437,3.858,0.745,6.23,0.659c2.366-0.087,4.974-0.6,7.534-1.624
				c2.559-1.024,5.048-2.555,7.243-4.467c1.096-0.958,2.124-2.009,3.05-3.15c0.471-0.564,0.913-1.153,1.328-1.765
				c0.106-0.155,0.211-0.294,0.317-0.462l0.312-0.549l0.606-1.108c1.377-2.838,2.006-5.275,2.6-7.581
				c0.525-2.272,0.925-4.368,1.191-6.2c0.556-3.674,0.783-6.377,0.847-7.494c0.312-5.777-1.701-8.261-6.008-8.26
				c-4.334-0.001-6.244,2.209-6.532,7.544c-0.058,1.03-0.131,3.545-0.345,6.854c-0.097,1.662-0.275,3.49-0.502,5.406
				c-0.253,1.856-0.604,3.893-1.078,5.362l-0.168,0.474l-0.076,0.246c-0.037,0.09-0.099,0.196-0.147,0.294
				c-0.194,0.406-0.41,0.808-0.652,1.203c-0.465,0.8-1.013,1.572-1.611,2.305c-1.203,1.462-2.619,2.759-4.156,3.794
				c-1.538,1.032-3.193,1.807-4.836,2.337c-1.645,0.527-3.264,0.824-4.726,1.044L89.402,356.149z"/>
		</g>
		<path fill="#FF595F" d="M128.713,255.611c-1.081,0.171-12.356,3.14-20.724-0.768c0,0-4.711,4.495-5.532,11.883
			c0,0,2.215,0.916,6.579,1.383c0,0,9.482,6.614,3.224,21.001c-7.408,17.03-9.329,33.249-12.576,37.848c0,0,20.521,7.935,42.136,0
			c0,0-0.561-22.773-7.452-37.848c-5.155-11.278,1.637-13.502,1.801-21.27c0,0,3.079-0.183,4.98-1.871c0,0,1.527-9.423-2.885-12.039
			C138.265,253.93,132.829,254.962,128.713,255.611z"/>
		<path fill="#FFBE8F" d="M86.167,233.377c0,0,2.686-0.319,2.604-4.411c-0.082-4.092,0.567-5.186,1.095-5.907
			c0.528-0.722-1.2-1.798-2.351,0.969c-1.152,2.767-1.152,2.767-1.152,2.767s-1.552-6.1-3.609-7.865
			c-2.057-1.765-2.315,4.393-2.53,8.654C80.009,231.844,83.923,234.22,86.167,233.377z"/>
		<path fill="#003757" d="M128.598,371.659c0,0,4.635,0.962,6.297,0c0,0,2.274,1.224,5.772,0.962
			c3.498-0.262,5.859,0.194,5.422,2.24c-0.437,2.046-13.453,3.932-16.791,2.308c-1.798-0.875-0.7-5.947-0.7-5.947"/>
		<path fill="#003757" d="M93.084,350.31c0,0-2.487,4.028-2.15,5.918c0,0-1.927,1.719-2.875,5.097s-2.183,5.441-3.957,4.332
			c-1.773-1.109,0.898-13.987,3.564-16.57c1.436-1.391,5.828,1.373,5.828,1.373"/>
		<path fill="#003C5E" d="M128.83,233.926c0,0-8.508,10.301-10.387,30.629c0,0-10.079,2.562-16.912-1.538
			c0,0-1.367-33.529,11.616-37.008C126.13,222.531,128.83,233.926,128.83,233.926z"/>
		<path fill="#FFBE8F" d="M127.668,238.098c0,0-1.537-3.609-4.441-2.413s0.044,8.029,2.67,8.029
			C128.522,243.714,127.668,238.098,127.668,238.098z"/>
	</g>
	<g>
		<g>
			<path fill="#FFBE8F" d="M294.681,254.178c-3.543,4.407-6.691,13.141-1.424,23.134c3.32,6.3,11.684,7.267,18.237,0.562
				c6.553-6.705,6.379-17.807,3.695-23.195C312.504,249.292,300.362,247.11,294.681,254.178z"/>
			<g>
				<path fill="#FFBE8F" d="M301.443,293.621c-0.458,0-0.923-0.07-1.382-0.217c-2.387-0.763-3.702-3.315-2.939-5.701
					c0.948-2.966,0.589-7.12,0.37-8.471c-0.399-2.468,1.273-4.8,3.741-5.205c2.469-0.406,4.796,1.257,5.208,3.724
					c0.119,0.712,1.109,7.12-0.679,12.714C305.146,292.392,303.363,293.621,301.443,293.621z"/>
			</g>
		</g>
		<g>
			<path fill="#FFBE8F" d="M327.652,248.343c-0.485,2.718-0.698,6.264-1.252,10.032c-0.124,0.943-0.217,1.908-0.354,2.872
				c-0.159,0.957-0.319,1.923-0.479,2.892c-0.257,1.95-0.73,3.828-1.102,5.667c-0.897,3.606-1.884,6.918-3.03,9.184
				c-0.238,0.611-0.538,1.097-0.792,1.561c-0.265,0.449-0.458,0.92-0.703,1.234c-0.469,0.647-0.763,1.216-0.986,1.439
				c-1.024,1.426-1.522,2.265-1.599,3.312c-0.065,1.03,0.148,2.292,0.625,3.977c0.469,1.679,1.674,2.689,3.463,2.562
				c1.757-0.104,3.974-1.393,5.713-3.832c0.396-0.461,0.838-1.291,1.505-2.394c0.346-0.551,0.583-1.183,0.917-1.871
				c0.316-0.69,0.677-1.44,0.928-2.246c1.274-3.223,2.049-7.271,2.552-11.499c0.89-8.47-0.009-17.592-1.237-23.081L327.652,248.343z
				"/>
		</g>
		<path fill="#FFBE8F" d="M278.347,250.878c0.98-0.273,2.238-1.097,3.169-3.361c1.766-4.292,2.937-5.135,3.812-5.646
			c0.875-0.512-0.434-2.412-2.883-0.056c-0.824,0.792-1.37,1.318-1.733,1.667L278.347,250.878z"/>
		<path fill="#BAF1FF" d="M284.216,245.693l-12.239-4.161c-2.906-0.988-4.475-4.174-3.487-7.08l4.161-12.239
			c0.988-2.906,4.174-4.475,7.08-3.487l12.239,4.161c2.906,0.988,4.475,4.174,3.487,7.08l-4.161,12.239
			C290.308,245.111,287.122,246.681,284.216,245.693z"/>
		<path fill="#FFBE8F" d="M280.712,243.481c-0.717,0.689-0.717,0.689-0.717,0.689s1.147-7.044-0.193-9.811
			c-1.34-2.766-6.375,2.766-6.938,8.034c-0.703,6.577,1.233,8.391,3.948,8.531c0,0,0.656,0.198,1.535-0.047L280.712,243.481z"/>
		<g>
			<path fill="#FFBE8F" d="M328.188,250.878c-0.98-0.273-2.238-1.097-3.169-3.361c-1.766-4.292-2.937-5.135-3.812-5.646
				c-0.875-0.512,0.434-2.412,2.883-0.056c0.823,0.792,1.37,1.318,1.733,1.667L328.188,250.878z"/>
			<path fill="#FF9CBD" d="M324.049,245.693l-12.239-4.161c-2.906-0.988-4.475-4.174-3.487-7.08l4.161-12.239
				c0.988-2.906,4.174-4.475,7.08-3.487l12.239,4.161c2.906,0.988,4.475,4.174,3.487,7.08l-4.161,12.239
				C330.141,245.111,326.955,246.681,324.049,245.693z"/>
			<path fill="#FFBE8F" d="M325.824,243.481c0.717,0.689,0.717,0.689,0.717,0.689s-1.147-7.044,0.193-9.811
				c1.34-2.766,6.375,2.766,6.938,8.034c0.703,6.577-1.233,8.391-3.948,8.531c0,0-0.656,0.198-1.535-0.047L325.824,243.481z"/>
		</g>
		<g>
			<path fill="#FFBE8F" d="M273.552,248.909c-0.336,1.244-0.668,2.7-0.99,4.308c-0.186,0.801-0.266,1.651-0.362,2.53
				c-0.087,0.885-0.177,1.794-0.268,2.719c-0.105,0.93-0.052,1.891-0.075,2.862c0.016,0.972-0.043,1.959,0.053,2.95
				c0.089,0.996,0.179,1.993,0.268,2.983c0.068,0.997,0.316,1.976,0.473,2.952c0.732,3.89,1.973,7.543,3.407,10.295
				c0.315,0.704,0.695,1.331,1.033,1.912c0.349,0.576,0.63,1.119,0.956,1.568c0.635,0.904,1.098,1.591,1.42,1.963
				c1.588,1.968,3.29,2.954,4.721,3.083c1.459,0.124,2.678-0.621,3.606-2.101c1.857-3.018,1.8-4.732-0.428-7.394
				c-0.223-0.25-0.563-0.734-1.06-1.338c-0.255-0.296-0.482-0.689-0.77-1.084c-0.28-0.403-0.602-0.829-0.88-1.34
				c-1.258-1.935-2.529-4.65-3.567-7.73c-0.233-0.78-0.568-1.542-0.745-2.368c-0.21-0.819-0.421-1.643-0.631-2.466
				c-0.23-0.822-0.323-1.681-0.499-2.514c-0.139-0.841-0.365-1.664-0.445-2.497c-0.108-0.832-0.214-1.648-0.317-2.444
				c-0.109-0.797-0.245-1.573-0.283-2.327c-0.126-1.505-0.279-2.9-0.46-4.123L273.552,248.909z"/>
		</g>
		<path fill="#FF595F" d="M288.781,339.836c0,0,4.504,9.545,14.817,10.218c13.337,0.87,16.489-5.167,14.833-16.076
			C318.431,333.978,297.108,330.297,288.781,339.836z"/>
		<path fill="#003757" d="M325.945,398.737c-1.66,0.121-3.93,0.454-5.534,3.703c-0.548,1.109-0.577,2.117-0.378,2.964
			c0.374,1.587,1.855,2.666,3.485,2.67l5.851,0.011c2.206,0.004,3.997-1.966,3.586-4.133c-0.094-0.495-0.26-0.999-0.526-1.488
			C331.009,399.855,328.32,398.563,325.945,398.737z"/>
		<g>
			<g>
				<path fill="#FF595F" d="M328.901,400.574c0.315-7.986-0.579-20.79-1.951-32.239c-1.328-11.45-3.157-21.547-3.745-24.153
					c-1.497-6.735-4.444-9.107-9.174-7.842c-4.738,1.266-6.18,4.412-4.732,10.922c0.612,2.519,2.974,12.233,5.647,23.228
					c2.699,11.02,5.649,23.37,8.169,30.909L328.901,400.574z"/>
			</g>
		</g>
		<path fill="#003757" d="M287.365,400.041c-1.659,0.144-3.923,0.509-5.482,3.78c-0.953,1.999-0.249,3.651,0.443,4.633
			c0.689,0.341,1.265,0.626,1.954,0.966l7.88-0.094c1.197-0.014,2.206-0.907,2.351-2.095c0.128-1.048,0.066-2.349-0.611-3.553
			C292.444,401.089,289.737,399.835,287.365,400.041z"/>
		<g>
			<g>
				<path fill="#FF595F" d="M291.487,402.469c2.001-7.939,4.09-20.871,6.183-32.296c1.041-5.713,2.085-11.043,3.015-15.203
					c0.924-4.164,1.712-7.161,2.011-8.396c0.779-3.189,0.909-5.509,0.267-7.307c-0.636-1.787-2.062-3.065-4.37-3.901
					c-2.298-0.833-4.237-0.729-5.89,0.54c-1.642,1.264-2.968,3.702-3.848,7.308c-0.337,1.393-1.046,4.793-1.69,9.322
					c-0.652,4.531-1.224,10.186-1.6,16.158c-0.763,11.946-0.764,25.171,0.093,33.359L291.487,402.469z"/>
			</g>
		</g>
		<path fill="#BAF1FF" d="M299.073,285.786c1.225,0.196,7.55,3.298,20.938-11.527c0,0,6.45,8.089,7.364,16.468
			c0,0-3.574,4.774-8.677,4.632c0,0-1.872,24.742,5.186,43.047c0,0-15.955,9.14-35.104,1.431c0,0,0.089-18.059-0.335-40.201
			c0,0-5.9-2.092-10.292-10.551c0,0,2.931-8.308,7.939-11.264C286.093,277.82,294.407,285.041,299.073,285.786z"/>
		<path fill="#FFBE8F" d="M292.098,262.041c0,0-1.031-4.078-4.306-3.293c-3.275,0.786-1.284,8.514,1.498,8.949
			C292.072,268.132,292.098,262.041,292.098,262.041z"/>
		<path fill="#FFBE8F" d="M315.005,263.209c0,0,1.585-3.897,4.72-2.666c3.135,1.231,0.095,8.609-2.721,8.656
			C314.189,269.246,315.005,263.209,315.005,263.209z"/>
		<path fill="#003C5E" d="M289.809,258.363c0,0,1.771-8.938,11.569-10.41c9.798-1.473,14.845,2.378,16.291,11.098
			c1.446,8.719-4.56,17.408-13.97,16.96C294.29,275.563,288.057,267.428,289.809,258.363z"/>
	</g>
	<g>
		<rect x="393.633" y="366.775" fill="#005C91" width="64.774" height="49.672"/>
		<polygon fill="#003C5E" points="410.884,355.977 393.633,366.775 458.407,366.775 441.156,355.977 		"/>
		<rect x="410.884" y="355.977" fill="#133447" width="30.272" height="10.798"/>
		<polygon fill="#00CFFF" points="393.633,366.775 402.96,378.442 426.02,378.442 448.589,378.442 458.407,366.775 		"/>
		<polygon fill="#00CFFF" points="441.156,355.977 458.407,361.376 471.905,370.603 458.407,366.775 		"/>
		<polygon fill="#00CFFF" points="410.884,355.977 392.084,361.376 378.585,370.603 393.633,366.775 		"/>
	</g>
</g>
<g id="DESIGNED_BY_FREEPIK">
</g>
</svg>
