<svg version="1.2" xmlns="http://www.w3.org/2000/svg" viewBox="0 0 1265 1210" width="1265" height="1210"><defs><filter x="-50%" y="-50%" width="200%" height="200%" id="f1"> <feGaussianBlur stdDeviation="125"/> </filter></defs><style>.a{opacity:.5;filter:url(#f1);fill:#ff007e}.b{opacity:.5;filter:url(#f1);fill:#00aeff}</style><g style="opacity:.3"><path class="a" d="m464.6 564.7c-6.9 23.8-33.8 35.3-38 60.9-0.5 6.9-8.1 19.8-33.5 16.5-24.4 14.2-100.2-13.4-118.7 10.4-13.6 17.5-28.6 39.3-23.3 70.8 4.1 24.2 17.6 48.2 31.4 68.8 19.9 29.9 43.5 57.1 68.9 78.7 82.8 70.2 177.7 88.5 259.8 88.7 100 0.3 186.6-38.3 259.5-100.1 30.1-25.4 57.1-54.9 77.8-92.5 19-34.5 34.5-73.2 46.5-114.1 15.3-52 23.9-110.4 17.5-173.6-4.9-48-25.5-93.8-54-135.7-39-57.1-91.5-89.6-142.2-93.3-31.4-2.2-66.1 11.3-67.6 53.7-1.1 32.3 13.8 68.6 23.5 101.8 6.5 22.1 15.3 53.5 0.5 65.1-25 19.6-59.7 25.2-91.2 29.1-40.3 5.1-83.4-5.8-125.2-8.5-24.2-1.5-43.7 10.3-60.9 24.8-13.8 11.6-24.9 28-30.8 48.5z"/></g><g style="opacity:.3"><path class="b" d="m800 564.7c6.9 23.8 33.8 35.3 38 60.9 0.5 6.9 8.1 19.8 33.5 16.5 24.4 14.2 100.2-13.4 118.7 10.4 13.6 17.5 28.6 39.3 23.3 70.8-4.1 24.2-17.6 48.2-31.4 68.8-19.9 29.9-43.5 57.1-68.9 78.7-82.8 70.2-177.7 88.5-259.8 88.7-100 0.3-186.6-38.3-259.5-100.1-30.1-25.4-57.1-54.9-77.8-92.5-19-34.5-34.5-73.2-46.5-114.1-15.3-52-23.9-110.4-17.5-173.6 4.9-48 25.5-93.8 54-135.7 39-57.1 91.5-89.6 142.2-93.3 31.4-2.2 66.1 11.3 67.6 53.7 1.1 32.3-13.8 68.6-23.5 101.8-6.5 22.1-15.3 53.5-0.5 65.1 25 19.6 59.7 25.2 91.2 29.1 40.3 5.1 83.4-5.8 125.2-8.5 24.2-1.5 43.7 10.3 60.9 24.8 13.8 11.6 24.9 28 30.8 48.5z"/></g></svg>